<?xml version="1.0" standalone="no"?>
<!DOCTYPE svg PUBLIC "-//W3C//DTD SVG 20010904//EN"
 "http://www.w3.org/TR/2001/REC-SVG-20010904/DTD/svg10.dtd">
<svg version="1.0" xmlns="http://www.w3.org/2000/svg"
 width="16.000000pt" height="16.000000pt" viewBox="0 0 16.000000 16.000000"
 preserveAspectRatio="xMidYMid meet">

<g transform="translate(0.000000,16.000000) scale(0.100000,-0.100000)"
fill="#000000" stroke="none">
<path d="M50 131 c-8 -6 -18 -7 -23 -4 -5 3 -7 -3 -5 -12 4 -23 28 -32 28 -12
0 13 19 27 36 27 3 0 16 -12 29 -26 14 -15 25 -22 25 -15 0 17 -38 51 -57 51
-10 0 -25 -4 -33 -9z"/>
<path d="M20 71 c0 -6 9 -20 21 -32 15 -15 28 -19 47 -15 15 4 33 7 40 8 16 2
12 30 -5 36 -7 2 -13 -3 -13 -11 0 -13 -19 -27 -36 -27 -3 0 -16 12 -29 26
-14 15 -25 22 -25 15z"/>
</g>
</svg>
